<svg xmlns="http://www.w3.org/2000/svg" viewBox="0 0 159.04 284.69"><g><g><path fill="none" stroke="#f28840" stroke-miterlimit="10" stroke-width="15" d="M105.51 191.6l-.25-39.68a10.26 10.26 0 00-13-9.8l-27.32 7.56a10.27 10.27 0 00-7.52 9.89v46.7a10.26 10.26 0 01-7.64 9.92l-34.64 9.17a10.27 10.27 0 00-7.64 9.92v31.64a10.27 10.27 0 0012.88 9.93l109-28.73a10.27 10.27 0 007.65-9.94l-.35-142.84"/><path d="M113.04 191.34l-15 4v-13l15 9z" fill="#f28840"/><path fill="#4fd0c0" d="M155 40.68a30.36 30.36 0 004-16.18C158.66 11.56 149.36.84 137.81.05c-13.16-.9-24.09 10.77-24.09 25.29a27.31 27.31 0 004.07 14.48L133 62.06a4.33 4.33 0 007.4 0z"/><circle cx="136.04" cy="25.34" r="12" fill="#2a9d8f"/><circle cx="137.04" cy="99.34" r="20" fill="#f28840"/></g></g></svg>
