<svg xmlns="http://www.w3.org/2000/svg" viewBox="0 0 41.1 35.3"><g fill="#fff"><g><path d="M8.6 20.7a6 6 0 11-4.3 1.8 6 6 0 014.3-1.8m0-2.6a8.6 8.6 0 108.5 8.6 8.6 8.6 0 00-8.5-8.6z"/><path d="M26.4 5.9a3 3 0 003-3 2.9 2.9 0 00-3-2.9 3 3 0 100 5.9z"/><path d="M32.6 20.7a6 6 0 11-4.3 1.8 6 6 0 014.3-1.8m0-2.6a8.6 8.6 0 108.5 8.6 8.6 8.6 0 00-8.5-8.6z"/></g><path d="M30.9 11.8h-4.5l-2.7-5.6a2.9 2.9 0 00-4.5-.6L12.6 12a3 3 0 00-.8 2 2.7 2.7 0 001.7 2.5c4.1 2.4 5.6 2.7 5.6 3.9v6a1.5 1.5 0 003 0v-8.2c0-1.2-2.9-2.2-4.5-3.5l4.5-4.7c1.7 2.6 2.5 4.7 3.5 4.7h5.3a1.5 1.5 0 100-3z"/></g></svg>
