<svg xmlns="http://www.w3.org/2000/svg" viewBox="0 0 52 52"><path fill="#fff" d="M42.25 32.5H32.5a3.25 3.25 0 010-6.5h9.75S52 15.13 52 9.75a9.75 9.75 0 00-19.5 0c0 2.59 2.25 6.44 4.6 9.75h-4.6a9.75 9.75 0 000 19.5h9.75a3.25 3.25 0 010 6.5H18.84a70.12 70.12 0 01-4.8 6.5h28.21a9.75 9.75 0 000-19.5zm0-26A3.25 3.25 0 1139 9.75a3.25 3.25 0 013.25-3.25zM9.75 26A9.75 9.75 0 000 35.75C0 41.13 9.75 52 9.75 52s9.75-10.87 9.75-16.25A9.75 9.75 0 009.75 26zm0 13A3.25 3.25 0 1113 35.75 3.25 3.25 0 019.75 39z"/></svg>
