<svg xmlns="http://www.w3.org/2000/svg" viewBox="0 0 37.6 46.3"><path fill="#fff" d="M24.6 8.7a4.3 4.3 0 10-4.4-4.4 4.3 4.3 0 004.4 4.4zm-14.3 20l-1.4 3.1H3a2.9 2.9 0 100 5.8h7a4.3 4.3 0 004-2.6l.8-1.9-1-.6a8.6 8.6 0 01-3.4-3.8zm24.4-8.5h-4l-2.3-4.8a8.7 8.7 0 00-5.6-4.6L16.4 9A8.6 8.6 0 009 10.5l-3.6 2.7A2.9 2.9 0 109 17.8l3.6-2.7a2.8 2.8 0 012.3-.6l1.3.4-3.4 7.9a5.8 5.8 0 002.4 7.2l7.7 4.6-2.5 8a2.9 2.9 0 105.5 1.6l2.9-9.1a4.4 4.4 0 00-2-5L21.3 27l2.8-7 1.8 3.7a4.4 4.4 0 004 2.4h4.8a2.9 2.9 0 100-5.8z"/></svg>
